<?xml version="1.0" encoding="UTF-8" standalone="no"?>
<!-- Created with Inkscape (http://www.inkscape.org/) -->

<svg
   xmlns:dc="http://purl.org/dc/elements/1.1/"
   xmlns:cc="http://creativecommons.org/ns#"
   xmlns:rdf="http://www.w3.org/1999/02/22-rdf-syntax-ns#"
   xmlns:svg="http://www.w3.org/2000/svg"
   xmlns="http://www.w3.org/2000/svg"
   version="1.2"
   width="210mm"
   height="297mm"
   id="svg2">
  <defs
     id="defs4" />
  <metadata
     id="metadata7">
    <rdf:RDF>
      <cc:Work
         rdf:about="">
        <dc:format>image/svg+xml</dc:format>
        <dc:type
           rdf:resource="http://purl.org/dc/dcmitype/StillImage" />
        <dc:title></dc:title>
      </cc:Work>
    </rdf:RDF>
  </metadata>
  <g
     id="layer1">
    <flowRoot
       id="flowRoot2989"
       xml:space="preserve"
       style="font-size:40px;font-style:normal;font-weight:bold;line-height:125%;letter-spacing:0px;word-spacing:0px;fill:#000000;fill-opacity:1;stroke:none;font-family:Sans;-inkscape-font-specification:Sans Bold"><flowRegion
         id="flowRegion2991"><rect
           width="429.31482"
           height="112.12693"
           x="24.243662"
           y="129.08276"
           id="rect2993" /></flowRegion><flowPara
         id="flowPara2995"></flowPara></flowRoot>    <g
       id="text3020"
       style="font-size:25.97473907px;font-style:normal;font-weight:bold;line-height:125%;letter-spacing:0px;word-spacing:0px;fill:#000000;fill-opacity:1;stroke:none;font-family:Sans;-inkscape-font-specification:Sans Bold">
      <path
         d="m -60.971559,14.053264 3.652698,-0.355123 c 0.219834,1.226026 0.665851,2.126517 1.338054,2.701474 0.672191,0.574965 1.579023,0.862445 2.720499,0.862442 1.209101,3e-6 2.12016,-0.25577 2.733182,-0.76732 0.612998,-0.511542 0.919503,-1.109756 0.919516,-1.794641 -1.3e-5,-0.439671 -0.128956,-0.813818 -0.386831,-1.122444 -0.257899,-0.308612 -0.708144,-0.577068 -1.350737,-0.805369 -0.439687,-0.152188 -1.441641,-0.422758 -3.005866,-0.81171 -2.012372,-0.498856 -3.424408,-1.111866 -4.236115,-1.839032 -1.14147,-1.0230828 -1.712203,-2.270241 -1.712202,-3.7414788 -1e-6,-0.946981 0.268455,-1.8326747 0.805369,-2.6570839 0.53691,-0.8243763 1.310571,-1.4521831 2.320985,-1.8834222 1.010405,-0.4312026 2.230084,-0.646813 3.659039,-0.6468319 2.333658,1.89e-5 4.090248,0.5115652 5.269778,1.5346404 1.179502,1.0231099 1.798853,2.3886425 1.858056,4.0966019 l -3.754161,0.1648787 c -0.160663,-0.955437 -0.505217,-1.6424309 -1.033663,-2.0609839 -0.528468,-0.4185227 -1.321153,-0.6277917 -2.378058,-0.6278075 -1.090744,1.58e-5 -1.94473,0.2240816 -2.561962,0.6721979 -0.397405,0.2874957 -0.596105,0.6722123 -0.5961,1.154151 -5e-6,0.4396901 0.186012,0.8159514 0.558051,1.128785 0.473492,0.3974125 1.623414,0.8117227 3.44977,1.2429319 1.826338,0.4312324 3.177074,0.87725 4.052212,1.3380542 0.875111,0.4608242 1.559991,1.0907452 2.054642,1.8897632 0.49462,0.799036 0.741938,1.786193 0.741954,2.961476 -1.6e-5,1.065374 -0.295952,2.063101 -0.887808,2.993183 -0.591887,0.930086 -1.428963,1.621308 -2.51123,2.073667 -1.082292,0.452359 -2.430914,0.678539 -4.04587,0.678539 -2.350585,0 -4.155794,-0.543254 -5.415632,-1.629763 -1.259844,-1.086506 -2.012367,-2.669763 -2.25757,-4.749775 z"
         id="path3025" />
      <path
         d="m -36.518778,6.6337218 0,2.8409871 -2.435132,0 0,5.4283151 c -5e-6,1.099195 0.02325,1.739685 0.06976,1.921471 0.0465,0.181792 0.15219,0.331874 0.317074,0.450245 0.164873,0.118378 0.365686,0.177565 0.602442,0.177562 0.32975,3e-6 0.807475,-0.114144 1.433176,-0.34244 l 0.304392,2.764889 c -0.828629,0.355123 -1.767168,0.532685 -2.815621,0.532685 -0.642609,0 -1.221798,-0.107806 -1.737568,-0.323416 -0.515778,-0.21561 -0.894153,-0.494636 -1.135127,-0.837077 -0.240979,-0.342439 -0.407971,-0.805367 -0.500978,-1.388786 -0.0761,-0.414308 -0.114148,-1.251383 -0.114146,-2.511229 l 0,-5.8722191 -1.636105,0 0,-2.8409871 1.636105,0 0,-2.6761084 3.576599,-2.0800084 0,4.7561168 z"
         id="path3027" />
      <path
         d="m -31.356805,10.743007 -3.23416,-0.583417 c 0.363578,-1.3021081 0.98927,-2.2660135 1.877081,-2.8917193 0.887805,-0.6256801 2.206833,-0.9385266 3.957089,-0.9385404 1.589592,1.38e-5 2.773335,0.1881445 3.551234,0.5643926 0.777878,0.3762745 1.325359,0.8539995 1.642446,1.4331765 0.317062,0.5792005 0.475599,1.6424558 0.475612,3.1897686 l -0.03805,4.160017 c -1.3e-5,1.183748 0.05706,2.056759 0.17122,2.619035 0.114134,0.56228 0.32763,1.164721 0.64049,1.807325 l -3.525868,0 c -0.09302,-0.236749 -0.207165,-0.587645 -0.34244,-1.052688 -0.0592,-0.211381 -0.101474,-0.350894 -0.12683,-0.418538 -0.608792,0.591873 -1.259851,1.035777 -1.953178,1.331713 -0.693344,0.295936 -1.433183,0.443904 -2.219522,0.443904 -1.386676,0 -2.479525,-0.376262 -3.278549,-1.128785 -0.799029,-0.752522 -1.198543,-1.703744 -1.198542,-2.85367 -10e-7,-0.760974 0.181788,-1.439513 0.545368,-2.035618 0.363577,-0.596094 0.873009,-1.052681 1.528299,-1.369762 0.655284,-0.317067 1.600164,-0.593978 2.834646,-0.830735 1.66569,-0.312838 2.81984,-0.604547 3.462453,-0.875125 l 0,-0.355124 c -10e-6,-0.684871 -0.169116,-1.1731648 -0.507319,-1.4648836 -0.338222,-0.2916976 -0.976598,-0.4375517 -1.91513,-0.4375628 -0.634155,1.11e-5 -1.128791,0.1247269 -1.483909,0.3741479 -0.355128,0.2494423 -0.642609,0.6870045 -0.862442,1.3126885 z m 4.7688,2.891719 c -0.456596,0.152202 -1.179525,0.333991 -2.16879,0.545368 -0.989278,0.211388 -1.636109,0.418544 -1.940495,0.621466 -0.465048,0.329762 -0.697569,0.7483 -0.697564,1.255615 -5e-6,0.498867 0.186012,0.930088 0.558051,1.293663 0.372029,0.363581 0.845526,0.545371 1.420494,0.545368 0.642597,3e-6 1.255607,-0.21138 1.839031,-0.634149 0.431213,-0.321299 0.714466,-0.71447 0.84976,-1.179517 0.093,-0.304387 0.139503,-0.883575 0.139513,-1.737568 z"
         id="path3029" />
      <path
         d="m -16.149914,20.103045 -3.563917,0 0,-13.4693232 3.310257,0 0,1.9151297 c 0.566501,-0.9047066 1.075934,-1.500806 1.528299,-1.7882999 0.452353,-0.2874672 0.966013,-0.4312075 1.540982,-0.4312213 0.811702,1.38e-5 1.593818,0.2240795 2.346351,0.6721979 l -1.103419,3.1073298 c -0.600337,-0.3889345 -1.158387,-0.5834066 -1.674153,-0.5834172 -0.498871,1.06e-5 -0.921637,0.1374094 -1.268298,0.4121968 -0.346674,0.2748074 -0.619358,0.7715574 -0.818052,1.4902504 -0.198706,0.71871 -0.298055,2.223755 -0.29805,4.51514 z"
         id="path3031" />
      <path
         d="m -3.2893752,6.6337218 0,2.8409871 -2.4351318,0 0,5.4283151 c -5.6e-6,1.099195 0.023246,1.739685 0.069756,1.921471 0.046499,0.181792 0.1521899,0.331874 0.3170744,0.450245 0.1648726,0.118378 0.3656862,0.177565 0.6024415,0.177562 0.3297505,3e-6 0.8074755,-0.114144 1.4331765,-0.34244 l 0.3043915,2.764889 c -0.8286288,0.355123 -1.7671682,0.532685 -2.8156211,0.532685 -0.6426091,0 -1.2217979,-0.107806 -1.737568,-0.323416 -0.5157777,-0.21561 -0.8941529,-0.494636 -1.1351266,-0.837077 -0.240979,-0.342439 -0.4079713,-0.805367 -0.5009776,-1.388786 -0.0761,-0.414308 -0.1141488,-1.251383 -0.1141468,-2.511229 l 0,-5.8722191 -1.6361038,0 0,-2.8409871 1.6361038,0 0,-2.6761084 3.5765998,-2.0800084 0,4.7561168 z"
         id="path3033" />
      <path
         d="m -1.1966852,15.144 0,-3.563917 7.0010039,0 0,3.563917 z"
         id="path3035" />
      <path
         d="m 7.9223785,20.103045 0,-18.5932463 7.9014955,0 c 1.986988,1.86e-5 3.430732,0.1670109 4.331237,0.5009776 0.900476,0.3340028 1.621291,0.9279884 2.162448,1.7819584 0.541123,0.8540027 0.811693,1.830591 0.81171,2.929768 -1.7e-5,1.3951395 -0.410099,2.5471755 -1.230249,3.4561113 -0.820181,0.908956 -2.046201,1.481803 -3.678063,1.718544 0.811697,0.473505 1.481781,0.993507 2.010252,1.560006 0.528442,0.566512 1.240802,1.572694 2.137082,3.018549 l 2.270253,3.627332 -4.489775,0 -2.714157,-4.04587 C 16.470695,14.61132 15.811181,13.700261 15.456067,13.323993 15.100935,12.947738 14.724674,12.689851 14.327282,12.550331 13.929875,12.410826 13.299954,12.34107 12.437519,12.341062 l -0.760979,0 0,7.761983 z M 11.67654,9.3732451 l 2.777572,0 c 1.800973,1.07e-5 2.925529,-0.076087 3.373672,-0.2282936 0.44812,-0.1521847 0.799015,-0.4142993 1.052688,-0.7863447 C 19.134118,7.9865849 19.260948,7.5215429 19.260961,6.9634792 19.260948,6.3377994 19.093955,5.8325946 18.759983,5.4478634 18.425986,5.0631614 17.954602,4.8200712 17.345831,4.7185921 17.041429,4.676331 16.128255,4.6551927 14.606308,4.6551772 l -2.929768,0 z"
         id="path3037" />
      <path
         d="m 25.830741,13.178138 c -1e-6,-1.183736 0.291708,-2.329431 0.875126,-3.4370866 0.583414,-1.1076352 1.409921,-1.9531663 2.479522,-2.5365956 1.069592,-0.5834035 2.263905,-0.8751117 3.582941,-0.8751255 2.037722,1.38e-5 3.707646,0.6616418 5.009777,1.9848861 1.302104,1.3232678 1.953163,2.9953056 1.953178,5.0161176 -1.5e-5,2.037737 -0.657415,3.726685 -1.972203,5.06685 -1.314813,1.340168 -2.96994,2.010252 -4.965386,2.010252 -1.234483,0 -2.411885,-0.279026 -3.532209,-0.837077 -1.120333,-0.55805 -1.972206,-1.376101 -2.55562,-2.454156 -0.583418,-1.078049 -0.875127,-2.390736 -0.875126,-3.938065 z m 3.652698,0.190245 c -5e-6,1.335946 0.317069,2.359038 0.951223,3.069281 0.634143,0.71025 1.416259,1.065373 2.346351,1.06537 0.930076,3e-6 1.710079,-0.35512 2.34001,-1.06537 0.62991,-0.710243 0.94487,-1.74179 0.944882,-3.094647 -1.2e-5,-1.319021 -0.314972,-2.333659 -0.944882,-3.043915 -0.629931,-0.7102358 -1.409934,-1.0653588 -2.34001,-1.0653697 -0.930092,1.09e-5 -1.712208,0.3551339 -2.346351,1.0653697 -0.634154,0.710256 -0.951228,1.733349 -0.951223,3.069281 z"
         id="path3039" />
      <path
         d="m 42.382029,20.103045 0,-18.5932463 3.563916,0 0,6.6966124 c 1.099185,-1.251374 2.401303,-1.877067 3.906358,-1.8770808 1.640321,1.38e-5 2.997398,0.5939994 4.071236,1.7819585 1.073811,1.187983 1.610723,2.8938422 1.610738,5.1175812 -1.5e-5,2.299852 -0.547496,4.071239 -1.642446,5.314168 -1.094976,1.242932 -2.424573,1.864398 -3.988796,1.864398 -0.769443,0 -1.528307,-0.192359 -2.276595,-0.577076 -0.748302,-0.384716 -1.393019,-0.953335 -1.934154,-1.70586 l 0,1.978545 z m 3.53855,-7.02637 c -5e-6,1.395133 0.219833,2.426681 0.659515,3.094646 0.617232,0.946999 1.437397,1.420496 2.460498,1.420494 0.786336,2e-6 1.456419,-0.336096 2.010252,-1.008297 0.553812,-0.672194 0.830724,-1.731221 0.830735,-3.177086 -1.1e-5,-1.53886 -0.279036,-2.648619 -0.837076,-3.329282 -0.558061,-0.6806421 -1.272535,-1.0209683 -2.143424,-1.0209794 -0.853994,1.11e-5 -1.56424,0.331882 -2.13074,0.9956134 -0.566512,0.663752 -0.849765,1.672048 -0.84976,3.024891 z"
         id="path3041" />
      <path
         d="m 57.58892,13.178138 c -1e-6,-1.183736 0.291707,-2.329431 0.875126,-3.4370866 0.583414,-1.1076352 1.409921,-1.9531663 2.479522,-2.5365956 1.069592,-0.5834035 2.263905,-0.8751117 3.582941,-0.8751255 2.037722,1.38e-5 3.707646,0.6616418 5.009776,1.9848861 1.302105,1.3232678 1.953164,2.9953056 1.953179,5.0161176 -1.5e-5,2.037737 -0.657415,3.726685 -1.972203,5.06685 -1.314814,1.340168 -2.969941,2.010252 -4.965386,2.010252 -1.234483,0 -2.411885,-0.279026 -3.532209,-0.837077 -1.120333,-0.55805 -1.972206,-1.376101 -2.55562,-2.454156 -0.583419,-1.078049 -0.875127,-2.390736 -0.875126,-3.938065 z m 3.652698,0.190245 c -5e-6,1.335946 0.317069,2.359038 0.951223,3.069281 0.634143,0.71025 1.416259,1.065373 2.346351,1.06537 0.930076,3e-6 1.710079,-0.35512 2.340009,-1.06537 0.629911,-0.710243 0.944871,-1.74179 0.944882,-3.094647 -1.1e-5,-1.319021 -0.314971,-2.333659 -0.944882,-3.043915 -0.62993,-0.7102358 -1.409933,-1.0653588 -2.340009,-1.0653697 -0.930092,1.09e-5 -1.712208,0.3551339 -2.346351,1.0653697 -0.634154,0.710256 -0.951228,1.733349 -0.951223,3.069281 z"
         id="path3043" />
      <path
         d="m 80.469013,6.6337218 0,2.8409871 -2.435131,0 0,5.4283151 c -6e-6,1.099195 0.02325,1.739685 0.06976,1.921471 0.0465,0.181792 0.15219,0.331874 0.317074,0.450245 0.164873,0.118378 0.365687,0.177565 0.602442,0.177562 0.32975,3e-6 0.807475,-0.114144 1.433176,-0.34244 l 0.304392,2.764889 c -0.828629,0.355123 -1.767168,0.532685 -2.815621,0.532685 -0.642609,0 -1.221798,-0.107806 -1.737568,-0.323416 -0.515778,-0.21561 -0.894153,-0.494636 -1.135127,-0.837077 -0.240979,-0.342439 -0.407971,-0.805367 -0.500977,-1.388786 -0.0761,-0.414308 -0.114149,-1.251383 -0.114147,-2.511229 l 0,-5.8722191 -1.636104,0 0,-2.8409871 1.636104,0 0,-2.6761084 3.5766,-2.0800084 0,4.7561168 z"
         id="path3045" />
    </g>
  </g>
</svg>
