<?xml version="1.0" encoding="UTF-8" standalone="no"?>
<!-- Created with Inkscape (http://www.inkscape.org/) -->

<svg
   xmlns:dc="http://purl.org/dc/elements/1.1/"
   xmlns:cc="http://creativecommons.org/ns#"
   xmlns:rdf="http://www.w3.org/1999/02/22-rdf-syntax-ns#"
   xmlns:svg="http://www.w3.org/2000/svg"
   xmlns="http://www.w3.org/2000/svg"
   version="1.1"
   width="210mm"
   height="297mm"
   id="svg2">
  <defs
     id="defs4" />
  <metadata
     id="metadata7">
    <rdf:RDF>
      <cc:Work
         rdf:about="">
        <dc:format>image/svg+xml</dc:format>
        <dc:type
           rdf:resource="http://purl.org/dc/dcmitype/StillImage" />
        <dc:title></dc:title>
      </cc:Work>
    </rdf:RDF>
  </metadata>
  <g
     id="layer1">
    <g
       transform="translate(-106.42857,-41.428571)"
       id="text2985"
       style="font-size:25.97473907px;font-style:normal;font-weight:bold;line-height:125%;letter-spacing:0px;word-spacing:0px;fill:#000000;fill-opacity:1;stroke:none;font-family:Sans;-inkscape-font-specification:Sans">
      <path
         d="m 43.124095,43.470262 3.652698,-0.355124 c 0.219833,1.226027 0.665851,2.126517 1.338054,2.701475 0.672191,0.574965 1.579023,0.862445 2.720499,0.862442 1.2091,3e-6 2.12016,-0.25577 2.733181,-0.76732 0.612999,-0.511543 0.919504,-1.109756 0.919516,-1.794641 -1.2e-5,-0.439671 -0.128956,-0.813818 -0.386831,-1.122444 -0.257898,-0.308612 -0.708144,-0.577068 -1.350737,-0.805369 -0.439686,-0.152188 -1.441641,-0.422758 -3.005866,-0.81171 -2.012371,-0.498856 -3.424408,-1.111866 -4.236114,-1.839032 -1.14147,-1.023083 -1.712204,-2.270241 -1.712202,-3.741479 -2e-6,-0.946981 0.268454,-1.832675 0.805369,-2.657084 0.53691,-0.824376 1.31057,-1.452183 2.320985,-1.883422 1.010405,-0.431203 2.230083,-0.646813 3.659039,-0.646832 2.333657,1.9e-5 4.090248,0.511565 5.269777,1.53464 1.179502,1.02311 1.798854,2.388643 1.858057,4.096602 l -3.754162,0.164879 c -0.160663,-0.955437 -0.505216,-1.642431 -1.033663,-2.060984 -0.528467,-0.418523 -1.321153,-0.627791 -2.378058,-0.627807 -1.090743,1.6e-5 -1.94473,0.224081 -2.561962,0.672198 -0.397405,0.287495 -0.596105,0.672212 -0.596099,1.154151 -6e-6,0.43969 0.186011,0.815951 0.558051,1.128785 0.473491,0.397412 1.623413,0.811722 3.44977,1.242931 1.826337,0.431233 3.177073,0.877251 4.052211,1.338055 0.875111,0.460824 1.559992,1.090745 2.054643,1.889763 0.49462,0.799036 0.741938,1.786193 0.741954,2.961476 -1.6e-5,1.065374 -0.295952,2.063101 -0.887809,2.993183 -0.591887,0.930086 -1.428962,1.621308 -2.511229,2.073667 -1.082293,0.452359 -2.430915,0.678539 -4.04587,0.678539 -2.350585,0 -4.155794,-0.543254 -5.415632,-1.629763 -1.259844,-1.086506 -2.012367,-2.669763 -2.25757,-4.749775 z"
         id="path3005" />
      <path
         d="m 67.576876,36.05072 0,2.840987 -2.435132,0 0,5.428314 c -6e-6,1.099196 0.02325,1.739686 0.06976,1.921472 0.0465,0.181792 0.15219,0.331874 0.317075,0.450245 0.164872,0.118377 0.365686,0.177565 0.602441,0.177562 0.329751,3e-6 0.807476,-0.114144 1.433177,-0.34244 l 0.304391,2.764889 c -0.828628,0.355123 -1.767168,0.532685 -2.815621,0.532685 -0.642609,0 -1.221798,-0.107806 -1.737568,-0.323416 -0.515778,-0.21561 -0.894153,-0.494636 -1.135126,-0.837077 -0.240979,-0.342439 -0.407972,-0.805367 -0.500978,-1.388786 -0.0761,-0.414308 -0.114149,-1.251383 -0.114147,-2.511229 l 0,-5.872219 -1.636104,0 0,-2.840987 1.636104,0 0,-2.676109 3.5766,-2.080008 0,4.756117 z"
         id="path3007" />
      <path
         d="m 72.738848,40.160005 -3.234159,-0.583417 c 0.363577,-1.302108 0.98927,-2.266014 1.877081,-2.891719 0.887804,-0.625681 2.206833,-0.938527 3.957089,-0.938541 1.589591,1.4e-5 2.773335,0.188145 3.551234,0.564393 0.777878,0.376274 1.325359,0.853999 1.642445,1.433176 0.317062,0.579201 0.475599,1.642456 0.475612,3.189769 l -0.03805,4.160017 c -1.3e-5,1.183748 0.05706,2.056759 0.17122,2.619035 0.114134,0.56228 0.327631,1.164721 0.640491,1.807324 l -3.525868,0 c -0.09302,-0.236748 -0.207165,-0.587644 -0.342441,-1.052687 -0.0592,-0.211381 -0.101473,-0.350894 -0.126829,-0.418538 -0.608792,0.591873 -1.259851,1.035777 -1.953179,1.331713 -0.693343,0.295936 -1.433183,0.443904 -2.219521,0.443904 -1.386676,0 -2.479525,-0.376262 -3.27855,-1.128785 -0.799029,-0.752522 -1.198542,-1.703744 -1.198541,-2.85367 -10e-7,-0.760974 0.181788,-1.439513 0.545368,-2.035618 0.363577,-0.596094 0.873009,-1.052681 1.528299,-1.369762 0.655283,-0.317067 1.600164,-0.593978 2.834645,-0.830735 1.66569,-0.312838 2.81984,-0.604547 3.462453,-0.875125 l 0,-0.355124 c -9e-6,-0.684871 -0.169115,-1.173165 -0.507319,-1.464884 -0.338221,-0.291697 -0.976597,-0.437551 -1.91513,-0.437562 -0.634155,1.1e-5 -1.12879,0.124726 -1.483908,0.374147 -0.355129,0.249443 -0.642609,0.687005 -0.862443,1.312689 z m 4.7688,2.891719 c -0.456596,0.152202 -1.179525,0.333991 -2.168789,0.545368 -0.989279,0.211388 -1.63611,0.418543 -1.940496,0.621466 -0.465047,0.329762 -0.697568,0.7483 -0.697564,1.255614 -4e-6,0.498868 0.186013,0.930089 0.558052,1.293664 0.372028,0.363581 0.845525,0.54537 1.420493,0.545368 0.642597,2e-6 1.255607,-0.21138 1.839032,-0.634149 0.431212,-0.321299 0.714465,-0.714471 0.849759,-1.179517 0.093,-0.304387 0.139504,-0.883576 0.139513,-1.737568 z"
         id="path3009" />
      <path
         d="m 87.945739,49.520042 -3.563916,0 0,-13.469322 3.310257,0 0,1.915129 c 0.566501,-0.904706 1.075933,-1.500806 1.528299,-1.7883 0.452352,-0.287467 0.966012,-0.431207 1.540982,-0.431221 0.811701,1.4e-5 1.593817,0.22408 2.34635,0.672198 l -1.103419,3.10733 c -0.600336,-0.388935 -1.158386,-0.583407 -1.674153,-0.583417 -0.498871,1e-5 -0.921636,0.137409 -1.268298,0.412197 -0.346674,0.274807 -0.619357,0.771557 -0.818052,1.490249 -0.198705,0.71871 -0.298055,2.223756 -0.29805,4.515141 z"
         id="path3011" />
      <path
         d="m 100.80628,36.05072 0,2.840987 -2.435133,0 0,5.428314 c -6e-6,1.099196 0.02325,1.739686 0.06976,1.921472 0.0465,0.181792 0.15219,0.331874 0.317074,0.450245 0.164873,0.118377 0.365687,0.177565 0.602442,0.177562 0.32975,3e-6 0.807467,-0.114144 1.433177,-0.34244 l 0.30439,2.764889 c -0.82863,0.355123 -1.767167,0.532685 -2.81562,0.532685 -0.642609,0 -1.221798,-0.107806 -1.737568,-0.323416 -0.515778,-0.21561 -0.894153,-0.494636 -1.135127,-0.837077 -0.240979,-0.342439 -0.407971,-0.805367 -0.500977,-1.388786 -0.0761,-0.414308 -0.114149,-1.251383 -0.114147,-2.511229 l 0,-5.872219 -1.636104,0 0,-2.840987 1.636104,0 0,-2.676109 3.5766,-2.080008 0,4.756117 z"
         id="path3013" />
      <path
         d="m 102.89897,44.560998 0,-3.563917 7.001,0 0,3.563917 z"
         id="path3015" />
      <path
         d="m 112.01803,49.520042 0,-18.593245 7.9015,0 c 1.98699,1.8e-5 3.43073,0.167011 4.33123,0.500977 0.90048,0.334003 1.6213,0.927989 2.16245,1.781959 0.54113,0.854002 0.8117,1.830591 0.81171,2.929768 -1e-5,1.395139 -0.4101,2.547175 -1.23025,3.456111 -0.82018,0.908956 -2.0462,1.481803 -3.67806,1.718544 0.8117,0.473505 1.48178,0.993507 2.01025,1.560006 0.52844,0.566512 1.2408,1.572694 2.13708,3.018549 l 2.27026,3.627331 -4.48978,0 -2.71415,-4.04587 c -0.96392,-1.445854 -1.62344,-2.356913 -1.97855,-2.733181 -0.35513,-0.376255 -0.73139,-0.634142 -1.12878,-0.773662 -0.39741,-0.139505 -1.02733,-0.209261 -1.88977,-0.209269 l -0.76098,0 0,7.761982 z m 3.75416,-10.729799 2.77758,0 c 1.80097,1.1e-5 2.92552,-0.07609 3.37367,-0.228294 0.44812,-0.152184 0.79901,-0.414299 1.05269,-0.786344 0.25364,-0.372022 0.38047,-0.837064 0.38048,-1.395128 -1e-5,-0.62568 -0.167,-1.130884 -0.50097,-1.515616 -0.334,-0.384702 -0.80538,-0.627792 -1.41416,-0.729271 -0.3044,-0.04226 -1.21757,-0.0634 -2.73952,-0.06341 l -2.92977,0 z"
         id="path3017" />
      <path
         d="m 129.92639,42.595136 c 0,-1.183736 0.29171,-2.329431 0.87513,-3.437087 0.58341,-1.107635 1.40992,-1.953166 2.47952,-2.536595 1.06959,-0.583404 2.26391,-0.875112 3.58294,-0.875126 2.03773,1.4e-5 3.70765,0.661642 5.00978,1.984886 1.30211,1.323268 1.95316,2.995306 1.95318,5.016118 -2e-5,2.037737 -0.65742,3.726685 -1.9722,5.06685 -1.31482,1.340168 -2.96994,2.010252 -4.96539,2.010252 -1.23448,0 -2.41189,-0.279026 -3.53221,-0.837077 -1.12033,-0.55805 -1.97221,-1.376101 -2.55562,-2.454156 -0.58342,-1.078049 -0.87513,-2.390736 -0.87513,-3.938065 z m 3.6527,0.190245 c 0,1.335946 0.31707,2.359038 0.95123,3.069281 0.63414,0.710249 1.41625,1.065373 2.34635,1.06537 0.93007,3e-6 1.71008,-0.355121 2.34001,-1.06537 0.62991,-0.710243 0.94487,-1.74179 0.94488,-3.094647 -1e-5,-1.319022 -0.31497,-2.333659 -0.94488,-3.043915 -0.62993,-0.710236 -1.40994,-1.065359 -2.34001,-1.06537 -0.9301,1.1e-5 -1.71221,0.355134 -2.34635,1.06537 -0.63416,0.710256 -0.95123,1.733349 -0.95123,3.069281 z"
         id="path3019" />
      <path
         d="m 146.47768,49.520042 0,-18.593245 3.56392,0 0,6.696612 c 1.09918,-1.251374 2.4013,-1.877067 3.90636,-1.877081 1.64032,1.4e-5 2.99739,0.594 4.07123,1.781959 1.07381,1.187983 1.61073,2.893842 1.61074,5.117581 -1e-5,2.299852 -0.5475,4.071239 -1.64245,5.314168 -1.09497,1.242932 -2.42457,1.864398 -3.98879,1.864398 -0.76944,0 -1.52831,-0.192359 -2.2766,-0.577076 -0.7483,-0.384716 -1.39302,-0.953336 -1.93415,-1.70586 l 0,1.978544 z m 3.53855,-7.026369 c 0,1.395133 0.21984,2.426681 0.65952,3.094646 0.61723,0.946999 1.43739,1.420496 2.4605,1.420494 0.78633,2e-6 1.45641,-0.336096 2.01025,-1.008297 0.55381,-0.672194 0.83072,-1.731221 0.83073,-3.177086 -1e-5,-1.53886 -0.27903,-2.648619 -0.83707,-3.329282 -0.55806,-0.680642 -1.27254,-1.020968 -2.14343,-1.020979 -0.85399,1.1e-5 -1.56424,0.331882 -2.13074,0.995613 -0.56651,0.663752 -0.84976,1.672048 -0.84976,3.024891 z"
         id="path3021" />
      <path
         d="m 161.68457,42.595136 c 0,-1.183736 0.29171,-2.329431 0.87513,-3.437087 0.58341,-1.107635 1.40992,-1.953166 2.47952,-2.536595 1.06959,-0.583404 2.26391,-0.875112 3.58294,-0.875126 2.03772,1.4e-5 3.70765,0.661642 5.00978,1.984886 1.3021,1.323268 1.95316,2.995306 1.95318,5.016118 -2e-5,2.037737 -0.65742,3.726685 -1.97221,5.06685 -1.31481,1.340168 -2.96994,2.010252 -4.96538,2.010252 -1.23448,0 -2.41189,-0.279026 -3.53221,-0.837077 -1.12033,-0.55805 -1.97221,-1.376101 -2.55562,-2.454156 -0.58342,-1.078049 -0.87513,-2.390736 -0.87513,-3.938065 z m 3.6527,0.190245 c 0,1.335946 0.31707,2.359038 0.95122,3.069281 0.63415,0.710249 1.41626,1.065373 2.34636,1.06537 0.93007,3e-6 1.71007,-0.355121 2.34001,-1.06537 0.62991,-0.710243 0.94487,-1.74179 0.94488,-3.094647 -1e-5,-1.319022 -0.31497,-2.333659 -0.94488,-3.043915 -0.62994,-0.710236 -1.40994,-1.065359 -2.34001,-1.06537 -0.9301,1.1e-5 -1.71221,0.355134 -2.34636,1.06537 -0.63415,0.710256 -0.95122,1.733349 -0.95122,3.069281 z"
         id="path3023" />
      <path
         d="m 184.56467,36.05072 0,2.840987 -2.43513,0 0,5.428314 c -1e-5,1.099196 0.0232,1.739686 0.0697,1.921472 0.0465,0.181792 0.15219,0.331874 0.31708,0.450245 0.16487,0.118377 0.36568,0.177565 0.60244,0.177562 0.32975,3e-6 0.80747,-0.114144 1.43317,-0.34244 l 0.3044,2.764889 c -0.82863,0.355123 -1.76717,0.532685 -2.81563,0.532685 -0.6426,0 -1.22179,-0.107806 -1.73756,-0.323416 -0.51578,-0.21561 -0.89416,-0.494636 -1.13513,-0.837077 -0.24098,-0.342439 -0.40797,-0.805367 -0.50098,-1.388786 -0.0761,-0.414308 -0.11415,-1.251383 -0.11414,-2.511229 l 0,-5.872219 -1.63611,0 0,-2.840987 1.63611,0 0,-2.676109 3.5766,-2.080008 0,4.756117 z"
         id="path3025" />
    </g>
    <g
       transform="translate(-106.42857,-41.428571)"
       id="text2991"
       style="font-size:14.35831642px;font-style:normal;font-weight:bold;line-height:125%;letter-spacing:0px;word-spacing:0px;fill:#000000;fill-opacity:1;stroke:none;font-family:Sans;-inkscape-font-specification:Sans">
      <path
         d="m 188.29101,49.175293 0,-1.970062 1.97006,0 0,1.970062 z"
         id="path2996" />
      <path
         d="m 198.86344,45.39642 2.01213,0.637991 c -0.30849,1.121746 -0.82145,1.954873 -1.53889,2.499385 -0.71746,0.544513 -1.62771,0.816769 -2.73075,0.816769 -1.36479,0 -2.48653,-0.466224 -3.36523,-1.398674 -0.8787,-0.932447 -1.31805,-2.20726 -1.31805,-3.824444 0,-1.710652 0.44169,-3.039215 1.32506,-3.985694 0.88337,-0.946461 2.04484,-1.419697 3.48442,-1.419707 1.25728,1e-5 2.27853,0.371588 3.06376,1.114733 0.46738,0.439358 0.81793,1.070338 1.05163,1.892942 l -2.05419,0.490762 c -0.12153,-0.53282 -0.37509,-0.953474 -0.76068,-1.261961 -0.38561,-0.308471 -0.85417,-0.46271 -1.40569,-0.462719 -0.76185,9e-6 -1.37998,0.273433 -1.85438,0.820275 -0.4744,0.546857 -0.71161,1.432566 -0.7116,2.65713 -1e-5,1.299356 0.23369,2.224794 0.70109,2.776315 0.46739,0.551525 1.075,0.827287 1.82283,0.827286 0.55152,1e-6 1.02592,-0.175271 1.42321,-0.525818 0.39728,-0.350542 0.68239,-0.902065 0.85533,-1.654571 z"
         id="path2998" />
      <path
         d="m 202.24269,44.099404 c 0,-1.046955 0.15658,-1.925653 0.46973,-2.636097 0.2337,-0.523472 0.55269,-0.993202 0.95699,-1.409191 0.40429,-0.41597 0.84715,-0.724449 1.32857,-0.925438 0.64032,-0.271078 1.3788,-0.406622 2.21544,-0.406632 1.51435,1e-5 2.72606,0.46974 3.63515,1.40919 0.90907,0.939468 1.36361,2.245831 1.36362,3.919091 -1e-5,1.65925 -0.45105,2.957433 -1.35311,3.894554 -0.90207,0.937123 -2.10795,1.405684 -3.61762,1.405684 -1.52838,0 -2.7436,-0.466224 -3.64566,-1.398674 -0.90207,-0.932447 -1.35311,-2.216608 -1.35311,-3.852487 z m 2.13833,-0.07011 c -1e-5,1.163813 0.26874,2.046016 0.80625,2.646613 0.5375,0.600602 1.21989,0.900902 2.04718,0.900901 0.82728,10e-7 1.50617,-0.297962 2.03667,-0.89389 0.53048,-0.595923 0.79572,-1.489811 0.79573,-2.681668 -10e-6,-1.177824 -0.25824,-2.056522 -0.7747,-2.636097 -0.51648,-0.579559 -1.20238,-0.869342 -2.0577,-0.869351 -0.85533,9e-6 -1.54474,0.293297 -2.06821,0.879867 -0.52349,0.586586 -0.78523,1.471127 -0.78522,2.653625 z"
         id="path3000" />
      <path
         d="m 213.79665,49.175293 0,-10.277975 3.10583,0 1.8649,7.010897 1.84386,-7.010897 3.11284,0 0,10.277975 -1.928,0 0,-8.090575 -2.04017,8.090575 -1.9981,0 -2.03316,-8.090575 0,8.090575 z"
         id="path3002" />
    </g>
  </g>
</svg>
